# xmcd CD database file
#
# Track frame offsets:
#	182
#	20327
#	40655
#	58727
#	77760
#	92455
#	112452
#	133010
#	150002
#	170155
#	189420
#	210022
#
# Disc length: 3116 seconds
#
# Revision: 4
# Processed by: cddbd v1.5.1PL0 Copyright (c) Steve Scherf et al.
# Submitted via: CDex 1.51
#
DISCID=900c2a0c
DTITLE=AZ Yet - AZ Yet
DYEAR=1996
DGENRE=Slow Jam
TTITLE0=Last Night
TTITLE1=Saved For Someone Else
TTITLE2=Care For Me
TTITLE3=Every Little Bit Of My Heart
TTITLE4=Hard To Say I'm Sorry
TTITLE5=That's All I Want
TTITLE6=Secrets
TTITLE7=Through My Heart (The Arrow)
TTITLE8=I Don't Want To Be Lonely
TTITLE9=Sadder Than Blue
TTITLE10=Inseparable Lovers
TTITLE11=Time To End The Story
EXTD=YEAR: 1996
EXTT0=
EXTT1=
EXTT2=
EXTT3=
EXTT4=
EXTT5=
EXTT6=
EXTT7=(The Arrow)
EXTT8=
EXTT9=
EXTT10=
EXTT11=
PLAYORDER=
